<svg width="45" height="37" viewBox="0 0 45 37" fill="none" xmlns="http://www.w3.org/2000/svg">
<path fill-rule="evenodd" clip-rule="evenodd" d="M22.4904 24.2275L22.9529 24.1831V24.2275C23.5628 24.245 24.1653 24.356 24.7356 24.5559L25.7377 24.9288L22.5 26.0827L19.5514 25.0264L20.4765 24.6358C21.1093 24.3807 21.7998 24.242 22.4904 24.2275Z" fill="#393E46"/>
<path fill-rule="evenodd" clip-rule="evenodd" d="M44.9229 31.7638V31.8526L44.865 34.0185L28.0117 28.0356L36.8286 24.8044L37.0214 25.0352C37.6766 25.8253 38.4186 26.5709 39.2376 27.2012C40.4614 28.1421 41.9164 28.799 43.4582 29.1274C43.8423 29.2272 44.1848 29.4314 44.4411 29.7133C44.9614 30.2814 45.0481 31.027 44.9325 31.7372V31.7638H44.9229Z" fill="#393E46"/>
<path fill-rule="evenodd" clip-rule="evenodd" d="M18.1542 28.4618L21.3533 29.6335L2.14882 36.6728H2.08137C1.80786 36.7045 1.53013 36.6813 1.2673 36.6047C1.00447 36.528 0.762786 36.3999 0.558887 36.2289C0.282522 35.9614 0.106856 35.6191 0.0578163 35.2525L0 34.9507L0.317987 34.8353C6.20557 32.7138 12.1028 30.61 18 28.5151L18.1542 28.4618Z" fill="#393E46"/>
<path fill-rule="evenodd" clip-rule="evenodd" d="M0.0770469 31.7638V31.7283C-0.0385848 31.0182 0.0385037 30.2725 0.558846 29.7044C0.815086 29.4226 1.15761 29.2184 1.54172 29.1186C3.09311 28.7901 4.54814 28.1421 5.77191 27.1923C6.59097 26.5621 7.33294 25.8164 7.97855 25.0264L8.17127 24.7956L16.9978 28.0267L15.9764 28.3818C10.879 30.1927 5.79118 32.0213 0.703386 33.841L0.1445 34.0452L0.0770469 31.8437V31.7638Z" fill="#393E46"/>
<path fill-rule="evenodd" clip-rule="evenodd" d="M17.9133 27.5296L8.18096 23.97L8.16169 23.9523L3.29552 22.1769C2.56816 21.9543 1.88478 21.6246 1.27197 21.2005C0.713085 20.801 0.22165 20.2596 0.144562 19.5849L0.0674744 18.9458L18.8191 25.6034L18.8865 25.63L22.288 26.8372L22.4133 26.8816L26.6917 28.4084L26.7591 28.4262L45 34.9062L44.9615 35.208C44.9192 35.578 44.7505 35.9261 44.4797 36.2022C44.0653 36.6016 43.4968 36.7082 42.9187 36.6727H42.8512L22.7313 29.2961L22.5867 29.2428L17.9133 27.5296Z" fill="#393E46"/>
<path fill-rule="evenodd" clip-rule="evenodd" d="M42.591 19.7802L42.6391 19.7625L44.9421 18.9458L44.8651 19.5849C44.8483 19.715 44.816 19.8431 44.7687 19.9666C44.5574 20.4638 44.1921 20.8929 43.7184 21.2005C43.329 21.4696 42.909 21.6988 42.4657 21.884C42.2248 21.9905 41.9839 22.0704 41.7334 22.1681L36.8576 23.9523L36.8094 23.97L26.8458 27.6184L23.6852 26.491L26.4314 25.5146C26.4603 25.5146 26.4989 25.4968 26.5278 25.4791L42.591 19.7802Z" fill="#393E46"/>
<path fill-rule="evenodd" clip-rule="evenodd" d="M23.136 22.9759C23.4233 22.0535 23.9452 21.2075 24.6584 20.5081C26.0749 19.1145 28.1274 18.3244 30.0931 17.8362C31.1338 17.5699 32.1938 17.3746 33.2634 17.2149L36.0578 16.8154C36.6649 16.7266 37.3298 16.6379 37.9079 16.4603C38.0043 16.4248 38.4572 16.2739 38.4861 16.1585L38.4957 16.1496V0.641968L42.2056 3.06532L42.0417 19.1322L26.47 24.6624L26.2773 24.5027C25.9068 24.2085 25.4827 23.9771 25.0246 23.8192C24.5319 23.6463 24.0169 23.5329 23.4925 23.4818L22.9914 23.4286L23.136 22.9759Z" fill="#393E46"/>
<path fill-rule="evenodd" clip-rule="evenodd" d="M21.5172 23.5351C21.0978 23.6002 20.6875 23.7074 20.2934 23.8547C19.8282 24.0277 19.4031 24.2807 19.0407 24.6003L18.848 24.7778L2.81374 19.0878L2.80411 3.06532L6.51396 0.641968V16.1585C6.51396 16.3893 6.73559 16.5491 6.97649 16.5491C8.02754 16.5874 9.07591 16.6734 10.1178 16.8065C11.9968 17.0462 13.9048 17.4279 15.6778 18.0315C18.2795 18.9192 21.0065 20.4282 21.8448 23.0291L21.9893 23.4552L21.5172 23.5351Z" fill="#393E46"/>
<path fill-rule="evenodd" clip-rule="evenodd" d="M22.0857 8.24047V21.3781L21.3148 20.5348C18.4047 17.3036 12.0931 16.0964 7.75696 15.8035L7.37152 15.7768V0.313538L7.83405 0.349044C11.833 0.695237 17.152 1.63617 20.1488 4.36133C20.8619 5.00934 21.469 5.78161 21.8062 6.66041C21.9508 7.01548 22.076 7.45932 22.076 7.84102L22.0857 8.24047Z" fill="#393E46"/>
<path fill-rule="evenodd" clip-rule="evenodd" d="M22.924 7.92091V7.84989C22.924 7.47707 23.0589 7.02436 23.1938 6.67816C23.5482 5.80689 24.1076 5.01871 24.8319 4.37021C27.8287 1.64505 33.167 0.695237 37.1756 0.349044L37.6381 0.313538V15.7768L37.2526 15.8035C32.9165 16.0964 26.6145 17.3125 23.6756 20.5348L22.924 21.3603V7.92091Z" fill="#393E46"/>
</svg>
