<svg width="27" height="26" viewBox="0 0 27 26" fill="none" xmlns="http://www.w3.org/2000/svg">
<g clip-path="url(#clip0_45_1684)">
<path d="M19.8971 17.3646L24.5046 21.8098L22.9824 23.2787L18.376 18.8325C16.6621 20.1584 14.5302 20.8795 12.3336 20.8765C6.98927 20.8765 2.65186 16.6909 2.65186 11.5335C2.65186 6.3762 6.98927 2.19054 12.3336 2.19054C17.6779 2.19054 22.0153 6.3762 22.0153 11.5335C22.0184 13.6534 21.2711 15.7106 19.8971 17.3646ZM17.7392 16.5943C19.1044 15.2395 19.8669 13.4233 19.8638 11.5335C19.8638 7.51812 16.4935 4.26676 12.3336 4.26676C8.17259 4.26676 4.80335 7.51812 4.80335 11.5335C4.80335 15.5479 8.17259 18.8003 12.3336 18.8003C14.2919 18.8033 16.1739 18.0675 17.5778 16.75L17.7392 16.5943Z" fill="#8789A3"/>
</g>
<defs>
<clipPath id="clip0_45_1684">
<rect width="25.8179" height="24.9146" fill="white" transform="translate(0.500366 0.114326)"/>
</clipPath>
</defs>
</svg>
