<svg width="26" height="25" viewBox="0 0 26 25" fill="none" xmlns="http://www.w3.org/2000/svg">
    <path d="M19.7389 16.9876L24.2315 21.3505L22.7472 22.7923L18.2557 18.4283C16.5845 19.7297 14.5058 20.4375 12.3639 20.4345C7.15281 20.4345 2.92352 16.3264 2.92352 11.2645C2.92352 6.20265 7.15281 2.09447 12.3639 2.09447C17.575 2.09447 21.8043 6.20265 21.8043 11.2645C21.8073 13.3451 21.0786 15.3643 19.7389 16.9876ZM17.6348 16.2316C18.966 14.9018 19.7094 13.1193 19.7064 11.2645C19.7064 7.32343 16.4201 4.13225 12.3639 4.13225C8.30663 4.13225 5.02138 7.32343 5.02138 11.2645C5.02138 15.2046 8.30663 18.3968 12.3639 18.3968C14.2734 18.3997 16.1084 17.6775 17.4774 16.3844L17.6348 16.2316Z" fill="#393E46"/>
</svg>
